# xmcd CD database file
#
# Track frame offsets:
#	150
#	2538
#	15748
#	36113
#	49912
#	63970
#	82288
#	104703
#	118123
#	136888
#	171091
#
# Disc length: 2694 seconds
#
# Revision: 0
# Processed by: cddbd v1.5.2PL0 Copyright (c) Steve Scherf et al.
# Submitted via: CDex 1.70beta2
#
DISCID=920a840b
DTITLE=Blues The Ville - Da Vila Para O Blues
DYEAR=2007
DGENRE=Blues
TTITLE0=Da Vila Para O Blues (intro)
TTITLE1=Ronelsong's
TTITLE2=Help Me Gipsy Woman
TTITLE3=Blues da Mama
TTITLE4=Bigode na Gaita
TTITLE5=On The Blues Road
TTITLE6=Slow For A Big Friend
TTITLE7=Apoteose do Blues
TTITLE8=Stay With Me
TTITLE9=Mellow Down Easy
TTITLE10=[Faixa Interativa]
EXTD=YEAR: 2007
EXTT0=
EXTT1=
EXTT2=
EXTT3=
EXTT4=
EXTT5=
EXTT6=
EXTT7=
EXTT8=
EXTT9=
EXTT10=
PLAYORDER=
